#!OML:ASF H:\MichaelJackson\Top Level 1\Subject 1\Session 1\male.ASF
:FULLY-SPECIFIED
:DEGREES
324
root 4.45129 16.4831 14.5198 -7.4234 29.6618 -3.44449
lowerback 10.9754 -2.95913 -7.19048
upperback 1.97504 -4.72692 0.254601
thorax -3.46268 -2.2654 4.93236
lowerneck -7.84779 -5.60928 -0.899884
upperneck 9.4633 -7.8749 4.02947
head 4.31499 -3.68799 0.896924
rclavicle -5.28022e-014 6.36111e-015
rhumerus -59.0174 -15.253 -75.6615
rradius 90.4096
rwrist -10.4548
rhand -38.5491 -45.3696
rfingers 7.12502
rthumb -11.5689 -75.0302
lclavicle -5.28022e-014 6.36111e-015
lhumerus -49.3494 -33.7815 102.251
lradius 68.0347
lwrist 20.7594
lhand 17.7341 14.4793
lfingers 7.12502
lthumb 42.4187 38.9275
rfemur -83.5218 -37.077 30.0712
rtibia 127.702
rfoot 23.9979 24.5709
rtoes -1.16766
lfemur -20.1015 27.183 -15.8798
ltibia 46.9136
lfoot -17.9946 10.619
ltoes -9.80674
325
root 4.42155 16.4752 14.6199 -6.81376 30.6611 -3.58191
lowerback 10.496 -3.12223 -7.27075
upperback 1.76191 -4.9213 0.359084
thorax -3.37949 -2.36011 5.08194
lowerneck -7.78951 -5.92656 -1.14515
upperneck 9.45976 -8.28149 4.10487
head 4.32768 -3.89345 0.933357
rclavicle -1.2275e-014 6.36111e-015
rhumerus -58.9136 -15.1333 -76.7793
rradius 91.0198
rwrist -10.6779
rhand -38.409 -44.7591
rfingers 7.12502
rthumb -11.4338 -74.4273
lclavicle -1.2275e-014 6.36111e-015
lhumerus -49.7217 -33.8193 103.26
lradius 67.9892
lwrist 21.2202
lhand 17.9495 15.2467
lfingers 7.12502
lthumb 42.6203 39.6255
rfemur -79.3212 -37.4164 26.7903
rtibia 125.418
rfoot 22.8651 23.7054
rtoes -1.49395
lfemur -20.8838 28.6007 -15.7712
ltibia 47.3709
lfoot -18.011 11.6949
ltoes -9.21243
326
root 4.39722 16.4635 14.7203 -6.25008 31.6605 -3.78137
lowerback 9.99943 -3.29146 -7.21801
upperback 1.54653 -5.10757 0.478839
thorax -3.2988 -2.45211 5.16889
lowerneck -7.71315 -6.25838 -1.41413
upperneck 9.47261 -8.70714 4.19001
head 4.34572 -4.10853 0.975086
rclavicle 2.34566e-014 -6.36111e-015
rhumerus -58.7928 -14.8387 -77.9272
rradius 91.5724
rwrist -10.6866
rhand -38.2829 -44.0822
rfingers 7.12502
rthumb -11.3121 -73.7572
lclavicle 2.34566e-014 -6.36111e-015
lhumerus -50.0736 -33.8346 104.276
lradius 67.9368
lwrist 21.4758
lhand 18.2111 16.041
lfingers 7.12502
lthumb 42.8651 40.3345
rfemur -75.0455 -37.1285 23.5818
rtibia 122.395
rfoot 21.6171 22.243
rtoes -1.32359
lfemur -21.7287 30.0263 -15.6355
ltibia 47.8816
lfoot -18.1903 12.1445
ltoes -8.64238
327
root 4.37813 16.4478 14.8204 -5.71625 32.6537 -4.03182
lowerback 9.47104 -3.4667 -7.03157
upperback 1.32733 -5.28662 0.606793
thorax -3.21574 -2.54216 5.18455
lowerneck -7.61503 -6.59877 -1.70232
upperneck 9.48588 -9.14406 4.2862
head 4.36356 -4.32951 1.02265
rclavicle -9.81499e-014 -1.51076e-014
rhumerus -58.6558 -14.3668 -79.1083
rradius 92.0631
rwrist -10.4727
rhand -38.1764 -43.3339
rfingers 7.12502
rthumb -11.2094 -73.0144
lclavicle -9.81499e-014 -1.51076e-014
lhumerus -50.4097 -33.8336 105.287
lradius 67.8879
lwrist 21.4548
lhand 18.5417 16.7892
lfingers 7.12502
lthumb 43.1742 40.9732
rfemur -70.8401 -36.3083 20.603
rtibia 118.694
rfoot 20.403 20.097
rtoes -0.408941
lfemur -22.6585 31.3709 -15.5045
ltibia 48.4394
lfoot -18.477 11.9882
ltoes -8.05416
328
root 4.36329 16.4276 14.9196 -5.19472 33.6426 -4.30583
lowerback 8.91026 -3.64696 -6.73911
upperback 1.10532 -5.46197 0.737841
thorax -3.12727 -2.63193 5.13929
lowerneck -7.49463 -6.94286 -2.01378
upperneck 9.48475 -9.58522 4.39753
head 4.377 -4.55317 1.07867
rclavicle -3.10601e-014 -3.18055e-015
rhumerus -58.5023 -13.7281 -80.3201
rradius 92.4996
rwrist -10.0491
rhand -38.0789 -42.505
rfingers 7.12502
rthumb -11.1153 -72.1906
lclavicle -3.10601e-014 -3.18055e-015
lhumerus -50.7265 -33.8193 106.281
lradius 67.8471
lwrist 21.1292
lhand 18.9864 17.4196
lfingers 7.12502
lthumb 43.5897 41.4538
rfemur -66.7852 -35.1027 17.9158
rtibia 114.402
rfoot 19.2446 17.3215
rtoes 1.1355
lfemur -23.6814 32.536 -15.4157
ltibia 49.0398
lfoot -18.8211 11.335
ltoes -7.42176
329
root 4.35172 16.4034 15.0174 -4.674 34.605 -4.57071
lowerback 8.32272 -3.82115 -6.36725
upperback 0.885796 -5.62374 0.862391
thorax -3.03143 -2.71643 5.03735
lowerneck -7.35368 -7.28898 -2.34142
upperneck 9.45338 -10.0279 4.51648
head 4.38092 -4.77859 1.14026
rclavicle -6.52014e-014 2.14687e-014
rhumerus -58.3286 -12.9438 -81.5556
rradius 92.8824
rwrist -9.46885
rhand -37.9649 -41.5442
rfingers 7.12502
rthumb -11.0054 -71.2357
lclavicle -6.52014e-014 2.14687e-014
lhumerus -51.016 -33.796 107.242
lradius 67.8082
lwrist 20.5128
lhand 19.5441 17.883
lfingers 7.12502
lthumb 44.1101 41.7247
rfemur -62.9078 -33.6042 15.5135
rtibia 109.594
rfoot 18.1505 14.0287
rtoes 3.35089
lfemur -24.7713 33.4441 -15.3852
ltibia 49.6745
lfoot -19.1954 10.3448
ltoes -6.62733
